<svg width="512" height="512" viewBox="0 0 512 512" fill="none" xmlns="http://www.w3.org/2000/svg">
  <rect width="512" height="512" rx="96" fill="#09090B"/>
  <rect x="24" y="24" width="464" height="464" rx="80" stroke="#1F6FFF" stroke-opacity="0.32" stroke-width="2"/>
  <path d="M256 68L147 171.5C122.7 194.5 109 226.6 109 260C109 341.2 174.8 407 256 407C337.2 407 403 341.2 403 260C403 226.6 389.3 194.5 365 171.5L256 68Z" fill="#4DA2FF"/>
  <path d="M256 118L179.5 191.1C161.1 208.7 150.7 233.1 150.7 258.6C150.7 316.7 197.9 363.9 256 363.9C314.1 363.9 361.3 316.7 361.3 258.6C361.3 233.1 350.9 208.7 332.5 191.1L256 118Z" fill="#09090B" fill-opacity="0.22"/>
  <path d="M213 268C213 244.3 232.3 225 256 225C279.7 225 299 244.3 299 268C299 291.7 279.7 311 256 311C232.3 311 213 291.7 213 268Z" fill="#EAF5FF"/>
  <path d="M256 180V214" stroke="#EAF5FF" stroke-width="20" stroke-linecap="round"/>
  <path d="M256 322V346" stroke="#EAF5FF" stroke-width="20" stroke-linecap="round"/>
</svg>
